G04 #@! TF.FileFunction,Soldermask,Top*
%FSLAX46Y46*%
G04 Gerber Fmt 4.6, Leading zero omitted, Abs format (unit mm)*
G04 Created by KiCad (PCBNEW 4.0.7) date Fri Mar 16 12:06:36 2018*
%MOMM*%
%LPD*%
G01*
G04 APERTURE LIST*
%ADD10C,0.100000*%
%ADD11C,1.000000*%
%ADD12R,1.850000X0.500000*%
%ADD13R,1.580002X0.500002*%
%ADD14R,0.500002X0.500002*%
%ADD15R,0.740000X0.790000*%
%ADD16C,3.650000*%
%ADD17C,0.000010*%
%ADD18C,0.254000*%
G04 APERTURE END LIST*
D10*
D11*
X160850000Y-92750000D02*
G75*
G03X160850000Y-97250000I0J-2250000D01*
G01*
D12*
X120000000Y-104250000D03*
X120000000Y-103750000D03*
X120000000Y-103250000D03*
X120000000Y-102750000D03*
X120000000Y-102250000D03*
X120000000Y-101750000D03*
X120000000Y-99250000D03*
X120000000Y-98750000D03*
X120000000Y-98250000D03*
X120000000Y-97750000D03*
X120000000Y-97250000D03*
X120000000Y-96750000D03*
X120000000Y-96250000D03*
X120000000Y-95750000D03*
X120000000Y-95250000D03*
X120000000Y-94750000D03*
X120000000Y-94250000D03*
X120000000Y-93750000D03*
X120000000Y-93250000D03*
X120000000Y-92750000D03*
X120000000Y-92250000D03*
X120000000Y-91750000D03*
X120000000Y-91250000D03*
X120000000Y-90750000D03*
X120000000Y-90250000D03*
X120000000Y-89750000D03*
X120000000Y-89250000D03*
X120000000Y-88750000D03*
X120000000Y-88250000D03*
X120000000Y-87750000D03*
X120000000Y-87250000D03*
X120000000Y-86750000D03*
X120000000Y-86250000D03*
X120000000Y-85750000D03*
D13*
X158950000Y-98300000D03*
X158950000Y-100300000D03*
D14*
X159950000Y-99300000D03*
D15*
X157975000Y-99300000D03*
D10*
G36*
X159219999Y-98549999D02*
X159740001Y-98549999D01*
X159740001Y-98630001D01*
X159219999Y-98630001D01*
X159219999Y-98549999D01*
X159219999Y-98549999D01*
G37*
G36*
X159139999Y-98550000D02*
X159220000Y-98549999D01*
X159220001Y-98550000D01*
X159220000Y-98630001D01*
X159139999Y-98550000D01*
X159139999Y-98550000D01*
G37*
G36*
X158680000Y-98630001D02*
X158679999Y-98550000D01*
X158680000Y-98549999D01*
X158760001Y-98550000D01*
X158680000Y-98630001D01*
X158680000Y-98630001D01*
G37*
G36*
X158159999Y-98549999D02*
X158680001Y-98549999D01*
X158680001Y-98630001D01*
X158159999Y-98630001D01*
X158159999Y-98549999D01*
X158159999Y-98549999D01*
G37*
G36*
X159219999Y-99969999D02*
X159740001Y-99969999D01*
X159740001Y-100050001D01*
X159219999Y-100050001D01*
X159219999Y-99969999D01*
X159219999Y-99969999D01*
G37*
G36*
X158760001Y-100050000D02*
X158680000Y-100050001D01*
X158679999Y-100050000D01*
X158680000Y-99969999D01*
X158760001Y-100050000D01*
X158760001Y-100050000D01*
G37*
G36*
X159220000Y-99969999D02*
X159220001Y-100050000D01*
X159220000Y-100050001D01*
X159139999Y-100050000D01*
X159220000Y-99969999D01*
X159220000Y-99969999D01*
G37*
G36*
X158159999Y-99969999D02*
X158680001Y-99969999D01*
X158680001Y-100050001D01*
X158159999Y-100050001D01*
X158159999Y-99969999D01*
X158159999Y-99969999D01*
G37*
G36*
X159189999Y-98539999D02*
X159490001Y-98539999D01*
X159490001Y-98600001D01*
X159189999Y-98600001D01*
X159189999Y-98539999D01*
X159189999Y-98539999D01*
G37*
G36*
X158409999Y-98539999D02*
X158710001Y-98539999D01*
X158710001Y-98600001D01*
X158409999Y-98600001D01*
X158409999Y-98539999D01*
X158409999Y-98539999D01*
G37*
G36*
X158389999Y-98630001D02*
X158389999Y-98049999D01*
X158450001Y-98049999D01*
X158450001Y-98630001D01*
X158389999Y-98630001D01*
X158389999Y-98630001D01*
G37*
G36*
X159449999Y-100550001D02*
X159449999Y-99969999D01*
X159510001Y-99969999D01*
X159510001Y-100550001D01*
X159449999Y-100550001D01*
X159449999Y-100550001D01*
G37*
G36*
X159449999Y-98630001D02*
X159449999Y-98049999D01*
X159510001Y-98049999D01*
X159510001Y-98630001D01*
X159449999Y-98630001D01*
X159449999Y-98630001D01*
G37*
G36*
X158389999Y-100550001D02*
X158389999Y-99969999D01*
X158450001Y-99969999D01*
X158450001Y-100550001D01*
X158389999Y-100550001D01*
X158389999Y-100550001D01*
G37*
G36*
X159189999Y-99999999D02*
X159490001Y-99999999D01*
X159490001Y-100060001D01*
X159189999Y-100060001D01*
X159189999Y-99999999D01*
X159189999Y-99999999D01*
G37*
G36*
X158409999Y-99999999D02*
X158710001Y-99999999D01*
X158710001Y-100060001D01*
X158409999Y-100060001D01*
X158409999Y-99999999D01*
X158409999Y-99999999D01*
G37*
D13*
X158950000Y-102800000D03*
X158950000Y-104800000D03*
D14*
X159950000Y-103800000D03*
D15*
X157975000Y-103800000D03*
D10*
G36*
X159219999Y-103049999D02*
X159740001Y-103049999D01*
X159740001Y-103130001D01*
X159219999Y-103130001D01*
X159219999Y-103049999D01*
X159219999Y-103049999D01*
G37*
G36*
X159139999Y-103050000D02*
X159220000Y-103049999D01*
X159220001Y-103050000D01*
X159220000Y-103130001D01*
X159139999Y-103050000D01*
X159139999Y-103050000D01*
G37*
G36*
X158680000Y-103130001D02*
X158679999Y-103050000D01*
X158680000Y-103049999D01*
X158760001Y-103050000D01*
X158680000Y-103130001D01*
X158680000Y-103130001D01*
G37*
G36*
X158159999Y-103049999D02*
X158680001Y-103049999D01*
X158680001Y-103130001D01*
X158159999Y-103130001D01*
X158159999Y-103049999D01*
X158159999Y-103049999D01*
G37*
G36*
X159219999Y-104469999D02*
X159740001Y-104469999D01*
X159740001Y-104550001D01*
X159219999Y-104550001D01*
X159219999Y-104469999D01*
X159219999Y-104469999D01*
G37*
G36*
X158760001Y-104550000D02*
X158680000Y-104550001D01*
X158679999Y-104550000D01*
X158680000Y-104469999D01*
X158760001Y-104550000D01*
X158760001Y-104550000D01*
G37*
G36*
X159220000Y-104469999D02*
X159220001Y-104550000D01*
X159220000Y-104550001D01*
X159139999Y-104550000D01*
X159220000Y-104469999D01*
X159220000Y-104469999D01*
G37*
G36*
X158159999Y-104469999D02*
X158680001Y-104469999D01*
X158680001Y-104550001D01*
X158159999Y-104550001D01*
X158159999Y-104469999D01*
X158159999Y-104469999D01*
G37*
G36*
X159189999Y-103039999D02*
X159490001Y-103039999D01*
X159490001Y-103100001D01*
X159189999Y-103100001D01*
X159189999Y-103039999D01*
X159189999Y-103039999D01*
G37*
G36*
X158409999Y-103039999D02*
X158710001Y-103039999D01*
X158710001Y-103100001D01*
X158409999Y-103100001D01*
X158409999Y-103039999D01*
X158409999Y-103039999D01*
G37*
G36*
X158389999Y-103130001D02*
X158389999Y-102549999D01*
X158450001Y-102549999D01*
X158450001Y-103130001D01*
X158389999Y-103130001D01*
X158389999Y-103130001D01*
G37*
G36*
X159449999Y-105050001D02*
X159449999Y-104469999D01*
X159510001Y-104469999D01*
X159510001Y-105050001D01*
X159449999Y-105050001D01*
X159449999Y-105050001D01*
G37*
G36*
X159449999Y-103130001D02*
X159449999Y-102549999D01*
X159510001Y-102549999D01*
X159510001Y-103130001D01*
X159449999Y-103130001D01*
X159449999Y-103130001D01*
G37*
G36*
X158389999Y-105050001D02*
X158389999Y-104469999D01*
X158450001Y-104469999D01*
X158450001Y-105050001D01*
X158389999Y-105050001D01*
X158389999Y-105050001D01*
G37*
G36*
X159189999Y-104499999D02*
X159490001Y-104499999D01*
X159490001Y-104560001D01*
X159189999Y-104560001D01*
X159189999Y-104499999D01*
X159189999Y-104499999D01*
G37*
G36*
X158409999Y-104499999D02*
X158710001Y-104499999D01*
X158710001Y-104560001D01*
X158409999Y-104560001D01*
X158409999Y-104499999D01*
X158409999Y-104499999D01*
G37*
D13*
X158950000Y-85200000D03*
X158950000Y-87200000D03*
D14*
X159950000Y-86200000D03*
D15*
X157975000Y-86200000D03*
D10*
G36*
X159219999Y-85449999D02*
X159740001Y-85449999D01*
X159740001Y-85530001D01*
X159219999Y-85530001D01*
X159219999Y-85449999D01*
X159219999Y-85449999D01*
G37*
G36*
X159139999Y-85450000D02*
X159220000Y-85449999D01*
X159220001Y-85450000D01*
X159220000Y-85530001D01*
X159139999Y-85450000D01*
X159139999Y-85450000D01*
G37*
G36*
X158680000Y-85530001D02*
X158679999Y-85450000D01*
X158680000Y-85449999D01*
X158760001Y-85450000D01*
X158680000Y-85530001D01*
X158680000Y-85530001D01*
G37*
G36*
X158159999Y-85449999D02*
X158680001Y-85449999D01*
X158680001Y-85530001D01*
X158159999Y-85530001D01*
X158159999Y-85449999D01*
X158159999Y-85449999D01*
G37*
G36*
X159219999Y-86869999D02*
X159740001Y-86869999D01*
X159740001Y-86950001D01*
X159219999Y-86950001D01*
X159219999Y-86869999D01*
X159219999Y-86869999D01*
G37*
G36*
X158760001Y-86950000D02*
X158680000Y-86950001D01*
X158679999Y-86950000D01*
X158680000Y-86869999D01*
X158760001Y-86950000D01*
X158760001Y-86950000D01*
G37*
G36*
X159220000Y-86869999D02*
X159220001Y-86950000D01*
X159220000Y-86950001D01*
X159139999Y-86950000D01*
X159220000Y-86869999D01*
X159220000Y-86869999D01*
G37*
G36*
X158159999Y-86869999D02*
X158680001Y-86869999D01*
X158680001Y-86950001D01*
X158159999Y-86950001D01*
X158159999Y-86869999D01*
X158159999Y-86869999D01*
G37*
G36*
X159189999Y-85439999D02*
X159490001Y-85439999D01*
X159490001Y-85500001D01*
X159189999Y-85500001D01*
X159189999Y-85439999D01*
X159189999Y-85439999D01*
G37*
G36*
X158409999Y-85439999D02*
X158710001Y-85439999D01*
X158710001Y-85500001D01*
X158409999Y-85500001D01*
X158409999Y-85439999D01*
X158409999Y-85439999D01*
G37*
G36*
X158389999Y-85530001D02*
X158389999Y-84949999D01*
X158450001Y-84949999D01*
X158450001Y-85530001D01*
X158389999Y-85530001D01*
X158389999Y-85530001D01*
G37*
G36*
X159449999Y-87450001D02*
X159449999Y-86869999D01*
X159510001Y-86869999D01*
X159510001Y-87450001D01*
X159449999Y-87450001D01*
X159449999Y-87450001D01*
G37*
G36*
X159449999Y-85530001D02*
X159449999Y-84949999D01*
X159510001Y-84949999D01*
X159510001Y-85530001D01*
X159449999Y-85530001D01*
X159449999Y-85530001D01*
G37*
G36*
X158389999Y-87450001D02*
X158389999Y-86869999D01*
X158450001Y-86869999D01*
X158450001Y-87450001D01*
X158389999Y-87450001D01*
X158389999Y-87450001D01*
G37*
G36*
X159189999Y-86899999D02*
X159490001Y-86899999D01*
X159490001Y-86960001D01*
X159189999Y-86960001D01*
X159189999Y-86899999D01*
X159189999Y-86899999D01*
G37*
G36*
X158409999Y-86899999D02*
X158710001Y-86899999D01*
X158710001Y-86960001D01*
X158409999Y-86960001D01*
X158409999Y-86899999D01*
X158409999Y-86899999D01*
G37*
D16*
X160850000Y-95000000D03*
D17*
G36*
X120924995Y-100024995D02*
X118850005Y-100024995D01*
X118850005Y-85075005D01*
X120924995Y-85075005D01*
X120924995Y-100024995D01*
X120924995Y-100024995D01*
G37*
X120924995Y-100024995D02*
X118850005Y-100024995D01*
X118850005Y-85075005D01*
X120924995Y-85075005D01*
X120924995Y-100024995D01*
G36*
X120924995Y-104924995D02*
X118850005Y-104924995D01*
X118850005Y-101225005D01*
X120924995Y-101225005D01*
X120924995Y-104924995D01*
X120924995Y-104924995D01*
G37*
X120924995Y-104924995D02*
X118850005Y-104924995D01*
X118850005Y-101225005D01*
X120924995Y-101225005D01*
X120924995Y-104924995D01*
D18*
G36*
X159613000Y-100423000D02*
X158287000Y-100423000D01*
X158287000Y-98177000D01*
X159613000Y-98177000D01*
X159613000Y-100423000D01*
X159613000Y-100423000D01*
G37*
X159613000Y-100423000D02*
X158287000Y-100423000D01*
X158287000Y-98177000D01*
X159613000Y-98177000D01*
X159613000Y-100423000D01*
G36*
X159613000Y-87323000D02*
X158287000Y-87323000D01*
X158287000Y-85077000D01*
X159613000Y-85077000D01*
X159613000Y-87323000D01*
X159613000Y-87323000D01*
G37*
X159613000Y-87323000D02*
X158287000Y-87323000D01*
X158287000Y-85077000D01*
X159613000Y-85077000D01*
X159613000Y-87323000D01*
G36*
X159613000Y-104923000D02*
X158287000Y-104923000D01*
X158287000Y-102677000D01*
X159613000Y-102677000D01*
X159613000Y-104923000D01*
X159613000Y-104923000D01*
G37*
X159613000Y-104923000D02*
X158287000Y-104923000D01*
X158287000Y-102677000D01*
X159613000Y-102677000D01*
X159613000Y-104923000D01*
M02*
