G04 #@! TF.FileFunction,Copper,L1,Top,Signal*
%FSLAX46Y46*%
G04 Gerber Fmt 4.6, Leading zero omitted, Abs format (unit mm)*
G04 Created by KiCad (PCBNEW 4.0.7) date Fri Mar 16 12:52:25 2018*
%MOMM*%
%LPD*%
G01*
G04 APERTURE LIST*
%ADD10C,0.100000*%
%ADD11R,1.700000X0.350000*%
%ADD12R,1.580000X0.500000*%
%ADD13R,0.500000X0.500000*%
%ADD14R,0.550000X0.600000*%
%ADD15C,6.150000*%
%ADD16C,0.250000*%
%ADD17C,0.600000*%
%ADD18C,0.025400*%
G04 APERTURE END LIST*
D10*
D11*
X120000000Y-104250000D03*
X120000000Y-103750000D03*
X120000000Y-103250000D03*
X120000000Y-102750000D03*
X120000000Y-102250000D03*
X120000000Y-101750000D03*
X120000000Y-99250000D03*
X120000000Y-98750000D03*
X120000000Y-98250000D03*
X120000000Y-97750000D03*
X120000000Y-97250000D03*
X120000000Y-96750000D03*
X120000000Y-96250000D03*
X120000000Y-95750000D03*
X120000000Y-95250000D03*
X120000000Y-94750000D03*
X120000000Y-94250000D03*
X120000000Y-93750000D03*
X120000000Y-93250000D03*
X120000000Y-92750000D03*
X120000000Y-92250000D03*
X120000000Y-91750000D03*
X120000000Y-91250000D03*
X120000000Y-90750000D03*
X120000000Y-90250000D03*
X120000000Y-89750000D03*
X120000000Y-89250000D03*
X120000000Y-88750000D03*
X120000000Y-88250000D03*
X120000000Y-87750000D03*
X120000000Y-87250000D03*
X120000000Y-86750000D03*
X120000000Y-86250000D03*
X120000000Y-85750000D03*
D12*
X158950000Y-98300000D03*
X158950000Y-100300000D03*
D13*
X159950000Y-99300000D03*
D14*
X157975000Y-99300000D03*
D10*
G36*
X159220000Y-98550000D02*
X159740000Y-98550000D01*
X159740000Y-98630000D01*
X159220000Y-98630000D01*
X159220000Y-98550000D01*
X159220000Y-98550000D01*
G37*
G36*
X159140001Y-98550001D02*
X159219999Y-98549999D01*
X159220001Y-98550001D01*
X159219999Y-98629999D01*
X159140001Y-98550001D01*
X159140001Y-98550001D01*
G37*
G36*
X158680001Y-98629999D02*
X158679999Y-98550001D01*
X158680001Y-98549999D01*
X158759999Y-98550001D01*
X158680001Y-98629999D01*
X158680001Y-98629999D01*
G37*
G36*
X158160000Y-98550000D02*
X158680000Y-98550000D01*
X158680000Y-98630000D01*
X158160000Y-98630000D01*
X158160000Y-98550000D01*
X158160000Y-98550000D01*
G37*
G36*
X159220000Y-99970000D02*
X159740000Y-99970000D01*
X159740000Y-100050000D01*
X159220000Y-100050000D01*
X159220000Y-99970000D01*
X159220000Y-99970000D01*
G37*
G36*
X158759999Y-100049999D02*
X158680001Y-100050001D01*
X158679999Y-100049999D01*
X158680001Y-99970001D01*
X158759999Y-100049999D01*
X158759999Y-100049999D01*
G37*
G36*
X159219999Y-99970001D02*
X159220001Y-100049999D01*
X159219999Y-100050001D01*
X159140001Y-100049999D01*
X159219999Y-99970001D01*
X159219999Y-99970001D01*
G37*
G36*
X158160000Y-99970000D02*
X158680000Y-99970000D01*
X158680000Y-100050000D01*
X158160000Y-100050000D01*
X158160000Y-99970000D01*
X158160000Y-99970000D01*
G37*
G36*
X159190000Y-98540000D02*
X159490000Y-98540000D01*
X159490000Y-98600000D01*
X159190000Y-98600000D01*
X159190000Y-98540000D01*
X159190000Y-98540000D01*
G37*
G36*
X158410000Y-98540000D02*
X158710000Y-98540000D01*
X158710000Y-98600000D01*
X158410000Y-98600000D01*
X158410000Y-98540000D01*
X158410000Y-98540000D01*
G37*
G36*
X158390000Y-98630000D02*
X158390000Y-98050000D01*
X158450000Y-98050000D01*
X158450000Y-98630000D01*
X158390000Y-98630000D01*
X158390000Y-98630000D01*
G37*
G36*
X159450000Y-100550000D02*
X159450000Y-99970000D01*
X159510000Y-99970000D01*
X159510000Y-100550000D01*
X159450000Y-100550000D01*
X159450000Y-100550000D01*
G37*
G36*
X159450000Y-98630000D02*
X159450000Y-98050000D01*
X159510000Y-98050000D01*
X159510000Y-98630000D01*
X159450000Y-98630000D01*
X159450000Y-98630000D01*
G37*
G36*
X158390000Y-100550000D02*
X158390000Y-99970000D01*
X158450000Y-99970000D01*
X158450000Y-100550000D01*
X158390000Y-100550000D01*
X158390000Y-100550000D01*
G37*
G36*
X159190000Y-100000000D02*
X159490000Y-100000000D01*
X159490000Y-100060000D01*
X159190000Y-100060000D01*
X159190000Y-100000000D01*
X159190000Y-100000000D01*
G37*
G36*
X158410000Y-100000000D02*
X158710000Y-100000000D01*
X158710000Y-100060000D01*
X158410000Y-100060000D01*
X158410000Y-100000000D01*
X158410000Y-100000000D01*
G37*
D12*
X158950000Y-102800000D03*
X158950000Y-104800000D03*
D13*
X159950000Y-103800000D03*
D14*
X157975000Y-103800000D03*
D10*
G36*
X159220000Y-103050000D02*
X159740000Y-103050000D01*
X159740000Y-103130000D01*
X159220000Y-103130000D01*
X159220000Y-103050000D01*
X159220000Y-103050000D01*
G37*
G36*
X159140001Y-103050001D02*
X159219999Y-103049999D01*
X159220001Y-103050001D01*
X159219999Y-103129999D01*
X159140001Y-103050001D01*
X159140001Y-103050001D01*
G37*
G36*
X158680001Y-103129999D02*
X158679999Y-103050001D01*
X158680001Y-103049999D01*
X158759999Y-103050001D01*
X158680001Y-103129999D01*
X158680001Y-103129999D01*
G37*
G36*
X158160000Y-103050000D02*
X158680000Y-103050000D01*
X158680000Y-103130000D01*
X158160000Y-103130000D01*
X158160000Y-103050000D01*
X158160000Y-103050000D01*
G37*
G36*
X159220000Y-104470000D02*
X159740000Y-104470000D01*
X159740000Y-104550000D01*
X159220000Y-104550000D01*
X159220000Y-104470000D01*
X159220000Y-104470000D01*
G37*
G36*
X158759999Y-104549999D02*
X158680001Y-104550001D01*
X158679999Y-104549999D01*
X158680001Y-104470001D01*
X158759999Y-104549999D01*
X158759999Y-104549999D01*
G37*
G36*
X159219999Y-104470001D02*
X159220001Y-104549999D01*
X159219999Y-104550001D01*
X159140001Y-104549999D01*
X159219999Y-104470001D01*
X159219999Y-104470001D01*
G37*
G36*
X158160000Y-104470000D02*
X158680000Y-104470000D01*
X158680000Y-104550000D01*
X158160000Y-104550000D01*
X158160000Y-104470000D01*
X158160000Y-104470000D01*
G37*
G36*
X159190000Y-103040000D02*
X159490000Y-103040000D01*
X159490000Y-103100000D01*
X159190000Y-103100000D01*
X159190000Y-103040000D01*
X159190000Y-103040000D01*
G37*
G36*
X158410000Y-103040000D02*
X158710000Y-103040000D01*
X158710000Y-103100000D01*
X158410000Y-103100000D01*
X158410000Y-103040000D01*
X158410000Y-103040000D01*
G37*
G36*
X158390000Y-103130000D02*
X158390000Y-102550000D01*
X158450000Y-102550000D01*
X158450000Y-103130000D01*
X158390000Y-103130000D01*
X158390000Y-103130000D01*
G37*
G36*
X159450000Y-105050000D02*
X159450000Y-104470000D01*
X159510000Y-104470000D01*
X159510000Y-105050000D01*
X159450000Y-105050000D01*
X159450000Y-105050000D01*
G37*
G36*
X159450000Y-103130000D02*
X159450000Y-102550000D01*
X159510000Y-102550000D01*
X159510000Y-103130000D01*
X159450000Y-103130000D01*
X159450000Y-103130000D01*
G37*
G36*
X158390000Y-105050000D02*
X158390000Y-104470000D01*
X158450000Y-104470000D01*
X158450000Y-105050000D01*
X158390000Y-105050000D01*
X158390000Y-105050000D01*
G37*
G36*
X159190000Y-104500000D02*
X159490000Y-104500000D01*
X159490000Y-104560000D01*
X159190000Y-104560000D01*
X159190000Y-104500000D01*
X159190000Y-104500000D01*
G37*
G36*
X158410000Y-104500000D02*
X158710000Y-104500000D01*
X158710000Y-104560000D01*
X158410000Y-104560000D01*
X158410000Y-104500000D01*
X158410000Y-104500000D01*
G37*
D12*
X158950000Y-85200000D03*
X158950000Y-87200000D03*
D13*
X159950000Y-86200000D03*
D14*
X157975000Y-86200000D03*
D10*
G36*
X159220000Y-85450000D02*
X159740000Y-85450000D01*
X159740000Y-85530000D01*
X159220000Y-85530000D01*
X159220000Y-85450000D01*
X159220000Y-85450000D01*
G37*
G36*
X159140001Y-85450001D02*
X159219999Y-85449999D01*
X159220001Y-85450001D01*
X159219999Y-85529999D01*
X159140001Y-85450001D01*
X159140001Y-85450001D01*
G37*
G36*
X158680001Y-85529999D02*
X158679999Y-85450001D01*
X158680001Y-85449999D01*
X158759999Y-85450001D01*
X158680001Y-85529999D01*
X158680001Y-85529999D01*
G37*
G36*
X158160000Y-85450000D02*
X158680000Y-85450000D01*
X158680000Y-85530000D01*
X158160000Y-85530000D01*
X158160000Y-85450000D01*
X158160000Y-85450000D01*
G37*
G36*
X159220000Y-86870000D02*
X159740000Y-86870000D01*
X159740000Y-86950000D01*
X159220000Y-86950000D01*
X159220000Y-86870000D01*
X159220000Y-86870000D01*
G37*
G36*
X158759999Y-86949999D02*
X158680001Y-86950001D01*
X158679999Y-86949999D01*
X158680001Y-86870001D01*
X158759999Y-86949999D01*
X158759999Y-86949999D01*
G37*
G36*
X159219999Y-86870001D02*
X159220001Y-86949999D01*
X159219999Y-86950001D01*
X159140001Y-86949999D01*
X159219999Y-86870001D01*
X159219999Y-86870001D01*
G37*
G36*
X158160000Y-86870000D02*
X158680000Y-86870000D01*
X158680000Y-86950000D01*
X158160000Y-86950000D01*
X158160000Y-86870000D01*
X158160000Y-86870000D01*
G37*
G36*
X159190000Y-85440000D02*
X159490000Y-85440000D01*
X159490000Y-85500000D01*
X159190000Y-85500000D01*
X159190000Y-85440000D01*
X159190000Y-85440000D01*
G37*
G36*
X158410000Y-85440000D02*
X158710000Y-85440000D01*
X158710000Y-85500000D01*
X158410000Y-85500000D01*
X158410000Y-85440000D01*
X158410000Y-85440000D01*
G37*
G36*
X158390000Y-85530000D02*
X158390000Y-84950000D01*
X158450000Y-84950000D01*
X158450000Y-85530000D01*
X158390000Y-85530000D01*
X158390000Y-85530000D01*
G37*
G36*
X159450000Y-87450000D02*
X159450000Y-86870000D01*
X159510000Y-86870000D01*
X159510000Y-87450000D01*
X159450000Y-87450000D01*
X159450000Y-87450000D01*
G37*
G36*
X159450000Y-85530000D02*
X159450000Y-84950000D01*
X159510000Y-84950000D01*
X159510000Y-85530000D01*
X159450000Y-85530000D01*
X159450000Y-85530000D01*
G37*
G36*
X158390000Y-87450000D02*
X158390000Y-86870000D01*
X158450000Y-86870000D01*
X158450000Y-87450000D01*
X158390000Y-87450000D01*
X158390000Y-87450000D01*
G37*
G36*
X159190000Y-86900000D02*
X159490000Y-86900000D01*
X159490000Y-86960000D01*
X159190000Y-86960000D01*
X159190000Y-86900000D01*
X159190000Y-86900000D01*
G37*
G36*
X158410000Y-86900000D02*
X158710000Y-86900000D01*
X158710000Y-86960000D01*
X158410000Y-86960000D01*
X158410000Y-86900000D01*
X158410000Y-86900000D01*
G37*
D15*
X160850000Y-95000000D03*
D16*
X160850000Y-95000000D02*
X157850000Y-95000000D01*
X158950000Y-85200000D02*
X158160000Y-85200000D01*
X158950000Y-102800000D02*
X158160000Y-102800000D01*
X158950000Y-98300000D02*
X158160000Y-98300000D01*
X120000000Y-86250000D02*
X121250000Y-86250000D01*
X121250000Y-86250000D02*
X121500000Y-86500000D01*
X121250000Y-86750000D02*
X120000000Y-86750000D01*
X121500000Y-86500000D02*
X121250000Y-86750000D01*
X121100000Y-90250000D02*
X121500000Y-90650000D01*
X121500000Y-91350000D02*
X121100000Y-91750000D01*
X121500000Y-90650000D02*
X121500000Y-91350000D01*
X120000000Y-93250000D02*
X121100000Y-93250000D01*
X121100000Y-94750000D02*
X120000000Y-94750000D01*
X120000000Y-96250000D02*
X121020002Y-96250000D01*
X120000000Y-90250000D02*
X121100000Y-90250000D01*
X121500000Y-94350000D02*
X121100000Y-94750000D01*
X121500000Y-96729998D02*
X121500000Y-97350000D01*
X121100000Y-103250000D02*
X120000000Y-103250000D01*
X121500000Y-97350000D02*
X121100000Y-97750000D01*
X121100000Y-93250000D02*
X121500000Y-93650000D01*
X121500000Y-102000000D02*
X121500000Y-102850000D01*
X121500000Y-102850000D02*
X121100000Y-103250000D01*
X120000000Y-103750000D02*
X121250000Y-103750000D01*
X121250000Y-103750000D02*
X121500000Y-103500000D01*
X121020002Y-96250000D02*
X121500000Y-96729998D01*
X121250000Y-103250000D02*
X120000000Y-103250000D01*
X121500000Y-103500000D02*
X121250000Y-103250000D01*
X121100000Y-97750000D02*
X120000000Y-97750000D01*
X120000000Y-101750000D02*
X121250000Y-101750000D01*
X121100000Y-91750000D02*
X120000000Y-91750000D01*
X121250000Y-101750000D02*
X121500000Y-102000000D01*
X121500000Y-93650000D02*
X121500000Y-94350000D01*
D17*
X157700000Y-103800000D02*
X156000000Y-103800000D01*
D16*
X157975000Y-103800000D02*
X157700000Y-103800000D01*
D17*
X157700000Y-99300000D02*
X156000000Y-99300000D01*
D16*
X157975000Y-99300000D02*
X157700000Y-99300000D01*
D17*
X157700000Y-86200000D02*
X156000000Y-86200000D01*
D16*
X157975000Y-86200000D02*
X157700000Y-86200000D01*
G36*
X160400000Y-109550000D02*
X123300000Y-109550000D01*
X123300000Y-105425000D01*
X123291354Y-105381533D01*
X123291354Y-105337210D01*
X123253294Y-105145868D01*
X123186102Y-104983651D01*
X123186098Y-104983647D01*
X123077718Y-104821446D01*
X123077716Y-104821442D01*
X122953558Y-104697284D01*
X122953554Y-104697282D01*
X122791353Y-104588902D01*
X122791349Y-104588898D01*
X122684797Y-104544764D01*
X122629134Y-104521707D01*
X122629132Y-104521707D01*
X122437790Y-104483646D01*
X122393467Y-104483646D01*
X122350000Y-104475000D01*
X121222221Y-104475000D01*
X121232346Y-104425000D01*
X121232346Y-104075000D01*
X121221647Y-104018140D01*
X121229000Y-104000388D01*
X121229000Y-103932250D01*
X121158214Y-103861464D01*
X121124069Y-103808401D01*
X121111774Y-103800000D01*
X155325000Y-103800000D01*
X155376381Y-104058311D01*
X155522703Y-104277297D01*
X155741689Y-104423619D01*
X156000000Y-104475000D01*
X157663724Y-104475000D01*
X157700000Y-104482346D01*
X158012323Y-104482346D01*
X158018549Y-104515432D01*
X158045399Y-104557159D01*
X158086368Y-104585152D01*
X158135000Y-104595000D01*
X158628224Y-104595000D01*
X158671612Y-104638388D01*
X158711368Y-104665152D01*
X158760000Y-104675000D01*
X159140000Y-104675000D01*
X159187037Y-104665813D01*
X159228388Y-104638388D01*
X159271776Y-104595000D01*
X159740000Y-104595000D01*
X159785432Y-104586451D01*
X159827159Y-104559601D01*
X159855152Y-104518632D01*
X159865000Y-104470000D01*
X159865000Y-104050000D01*
X159856451Y-104004568D01*
X159829601Y-103962841D01*
X159825000Y-103959697D01*
X159825000Y-103640990D01*
X159827159Y-103639601D01*
X159855152Y-103598632D01*
X159865000Y-103550000D01*
X159865000Y-103130000D01*
X159856451Y-103084568D01*
X159829601Y-103042841D01*
X159788632Y-103014848D01*
X159740000Y-103005000D01*
X159271776Y-103005000D01*
X159228388Y-102961612D01*
X159188632Y-102934848D01*
X159140000Y-102925000D01*
X158760000Y-102925000D01*
X158712963Y-102934187D01*
X158671612Y-102961612D01*
X158628224Y-103005000D01*
X158135000Y-103005000D01*
X158089568Y-103013549D01*
X158047841Y-103040399D01*
X158019848Y-103081368D01*
X158012500Y-103117654D01*
X157700000Y-103117654D01*
X157660959Y-103125000D01*
X156000000Y-103125000D01*
X155741689Y-103176381D01*
X155522703Y-103322703D01*
X155376381Y-103541689D01*
X155325000Y-103800000D01*
X121111774Y-103800000D01*
X121045073Y-103754425D01*
X121064686Y-103746301D01*
X121171301Y-103639686D01*
X121181368Y-103615382D01*
X121229000Y-103567750D01*
X121229000Y-103432250D01*
X121181368Y-103384618D01*
X121171301Y-103360314D01*
X121064686Y-103253699D01*
X121044619Y-103245387D01*
X121116599Y-103199069D01*
X121157410Y-103139340D01*
X121229000Y-103067750D01*
X121229000Y-102999612D01*
X121221099Y-102980538D01*
X121232346Y-102925000D01*
X121232346Y-102575000D01*
X121217716Y-102497247D01*
X121232346Y-102425000D01*
X121232346Y-102075000D01*
X121221647Y-102018140D01*
X121229000Y-102000388D01*
X121229000Y-101932250D01*
X121158214Y-101861464D01*
X121124069Y-101808401D01*
X120998754Y-101722777D01*
X120850000Y-101692654D01*
X119851000Y-101692654D01*
X119851000Y-101675000D01*
X121750000Y-101675000D01*
X121793471Y-101666353D01*
X121837790Y-101666353D01*
X122067400Y-101620682D01*
X122067401Y-101620682D01*
X122134593Y-101592850D01*
X122229616Y-101553490D01*
X122229617Y-101553489D01*
X122424271Y-101423425D01*
X122548427Y-101299269D01*
X122678487Y-101104620D01*
X122678490Y-101104617D01*
X122706321Y-101037425D01*
X122745682Y-100942401D01*
X122745682Y-100942395D01*
X122791352Y-100712797D01*
X122791354Y-100712791D01*
X122791353Y-100625000D01*
X122791354Y-100537209D01*
X122791352Y-100537203D01*
X122745682Y-100307605D01*
X122745682Y-100307599D01*
X122683907Y-100158462D01*
X122678490Y-100145383D01*
X122678487Y-100145380D01*
X122548425Y-99950729D01*
X122424269Y-99826573D01*
X122229617Y-99696511D01*
X122229616Y-99696510D01*
X122125909Y-99653553D01*
X122067401Y-99629318D01*
X122067400Y-99629318D01*
X121837790Y-99583647D01*
X121793471Y-99583647D01*
X121750000Y-99575000D01*
X121201372Y-99575000D01*
X121202223Y-99573754D01*
X121232346Y-99425000D01*
X121232346Y-99300000D01*
X155325000Y-99300000D01*
X155376381Y-99558311D01*
X155522703Y-99777297D01*
X155741689Y-99923619D01*
X156000000Y-99975000D01*
X157663724Y-99975000D01*
X157700000Y-99982346D01*
X158012323Y-99982346D01*
X158018549Y-100015432D01*
X158045399Y-100057159D01*
X158086368Y-100085152D01*
X158135000Y-100095000D01*
X158628224Y-100095000D01*
X158671612Y-100138388D01*
X158711368Y-100165152D01*
X158760000Y-100175000D01*
X159140000Y-100175000D01*
X159187037Y-100165813D01*
X159228388Y-100138388D01*
X159271776Y-100095000D01*
X159740000Y-100095000D01*
X159785432Y-100086451D01*
X159827159Y-100059601D01*
X159855152Y-100018632D01*
X159865000Y-99970000D01*
X159865000Y-99550000D01*
X159856451Y-99504568D01*
X159829601Y-99462841D01*
X159825000Y-99459697D01*
X159825000Y-99140990D01*
X159827159Y-99139601D01*
X159855152Y-99098632D01*
X159865000Y-99050000D01*
X159865000Y-98630000D01*
X159856451Y-98584568D01*
X159829601Y-98542841D01*
X159788632Y-98514848D01*
X159740000Y-98505000D01*
X159271776Y-98505000D01*
X159228388Y-98461612D01*
X159188632Y-98434848D01*
X159140000Y-98425000D01*
X158760000Y-98425000D01*
X158712963Y-98434187D01*
X158671612Y-98461612D01*
X158628224Y-98505000D01*
X158135000Y-98505000D01*
X158089568Y-98513549D01*
X158047841Y-98540399D01*
X158019848Y-98581368D01*
X158012500Y-98617654D01*
X157700000Y-98617654D01*
X157660959Y-98625000D01*
X156000000Y-98625000D01*
X155741689Y-98676381D01*
X155522703Y-98822703D01*
X155376381Y-99041689D01*
X155325000Y-99300000D01*
X121232346Y-99300000D01*
X121232346Y-99075000D01*
X121217716Y-98997247D01*
X121232346Y-98925000D01*
X121232346Y-98575000D01*
X121217716Y-98497247D01*
X121232346Y-98425000D01*
X121232346Y-98075000D01*
X121221647Y-98018140D01*
X121229000Y-98000388D01*
X121229000Y-97932250D01*
X121158214Y-97861464D01*
X121124069Y-97808401D01*
X121038040Y-97749620D01*
X121116599Y-97699069D01*
X121157410Y-97639340D01*
X121229000Y-97567750D01*
X121229000Y-97499612D01*
X121221099Y-97480538D01*
X121232346Y-97425000D01*
X121232346Y-97075000D01*
X121217716Y-96997247D01*
X121232346Y-96925000D01*
X121232346Y-96575000D01*
X121221647Y-96518140D01*
X121229000Y-96500388D01*
X121229000Y-96432250D01*
X121158214Y-96361464D01*
X121124069Y-96308401D01*
X121038040Y-96249620D01*
X121116599Y-96199069D01*
X121157410Y-96139340D01*
X121229000Y-96067750D01*
X121229000Y-95999612D01*
X121221099Y-95980538D01*
X121232346Y-95925000D01*
X121232346Y-95575000D01*
X121217716Y-95497247D01*
X121232346Y-95425000D01*
X121232346Y-95075000D01*
X121221647Y-95018140D01*
X121229000Y-95000388D01*
X121229000Y-94932250D01*
X121158214Y-94861464D01*
X121124069Y-94808401D01*
X121038040Y-94749620D01*
X121116599Y-94699069D01*
X121157410Y-94639340D01*
X121229000Y-94567750D01*
X121229000Y-94499612D01*
X121221099Y-94480538D01*
X121232346Y-94425000D01*
X121232346Y-94075000D01*
X121217716Y-93997247D01*
X121232346Y-93925000D01*
X121232346Y-93575000D01*
X121221647Y-93518140D01*
X121229000Y-93500388D01*
X121229000Y-93432250D01*
X121158214Y-93361464D01*
X121124069Y-93308401D01*
X121038040Y-93249620D01*
X121116599Y-93199069D01*
X121157410Y-93139340D01*
X121229000Y-93067750D01*
X121229000Y-92999612D01*
X121221099Y-92980538D01*
X121232346Y-92925000D01*
X121232346Y-92575000D01*
X121217716Y-92497247D01*
X121232346Y-92425000D01*
X121232346Y-92075000D01*
X121221647Y-92018140D01*
X121229000Y-92000388D01*
X121229000Y-91932250D01*
X121158214Y-91861464D01*
X121124069Y-91808401D01*
X121038040Y-91749620D01*
X121116599Y-91699069D01*
X121157410Y-91639340D01*
X121229000Y-91567750D01*
X121229000Y-91499612D01*
X121221099Y-91480538D01*
X121232346Y-91425000D01*
X121232346Y-91075000D01*
X121217716Y-90997247D01*
X121232346Y-90925000D01*
X121232346Y-90575000D01*
X121221647Y-90518140D01*
X121229000Y-90500388D01*
X121229000Y-90432250D01*
X121158214Y-90361464D01*
X121124069Y-90308401D01*
X121038040Y-90249620D01*
X121116599Y-90199069D01*
X121157410Y-90139340D01*
X121229000Y-90067750D01*
X121229000Y-89999612D01*
X121221099Y-89980538D01*
X121232346Y-89925000D01*
X121232346Y-89575000D01*
X121217716Y-89497247D01*
X121232346Y-89425000D01*
X121232346Y-89075000D01*
X121217716Y-88997247D01*
X121232346Y-88925000D01*
X121232346Y-88575000D01*
X121217716Y-88497247D01*
X121232346Y-88425000D01*
X121232346Y-88075000D01*
X121217716Y-87997247D01*
X121232346Y-87925000D01*
X121232346Y-87575000D01*
X121217716Y-87497247D01*
X121232346Y-87425000D01*
X121232346Y-87075000D01*
X121221647Y-87018140D01*
X121229000Y-87000388D01*
X121229000Y-86932250D01*
X121158214Y-86861464D01*
X121124069Y-86808401D01*
X121045073Y-86754425D01*
X121064686Y-86746301D01*
X121171301Y-86639686D01*
X121181368Y-86615382D01*
X121229000Y-86567750D01*
X121229000Y-86432250D01*
X121181368Y-86384618D01*
X121171301Y-86360314D01*
X121064686Y-86253699D01*
X121044619Y-86245387D01*
X121115152Y-86200000D01*
X155325000Y-86200000D01*
X155376381Y-86458311D01*
X155522703Y-86677297D01*
X155741689Y-86823619D01*
X156000000Y-86875000D01*
X157663724Y-86875000D01*
X157700000Y-86882346D01*
X158012323Y-86882346D01*
X158018549Y-86915432D01*
X158045399Y-86957159D01*
X158086368Y-86985152D01*
X158135000Y-86995000D01*
X158628224Y-86995000D01*
X158671612Y-87038388D01*
X158711368Y-87065152D01*
X158760000Y-87075000D01*
X159140000Y-87075000D01*
X159187037Y-87065813D01*
X159228388Y-87038388D01*
X159271776Y-86995000D01*
X159740000Y-86995000D01*
X159785432Y-86986451D01*
X159827159Y-86959601D01*
X159855152Y-86918632D01*
X159865000Y-86870000D01*
X159865000Y-86450000D01*
X159856451Y-86404568D01*
X159829601Y-86362841D01*
X159825000Y-86359697D01*
X159825000Y-86040990D01*
X159827159Y-86039601D01*
X159855152Y-85998632D01*
X159865000Y-85950000D01*
X159865000Y-85530000D01*
X159856451Y-85484568D01*
X159829601Y-85442841D01*
X159788632Y-85414848D01*
X159740000Y-85405000D01*
X159271776Y-85405000D01*
X159228388Y-85361612D01*
X159188632Y-85334848D01*
X159140000Y-85325000D01*
X158760000Y-85325000D01*
X158712963Y-85334187D01*
X158671612Y-85361612D01*
X158628224Y-85405000D01*
X158135000Y-85405000D01*
X158089568Y-85413549D01*
X158047841Y-85440399D01*
X158019848Y-85481368D01*
X158012500Y-85517654D01*
X157700000Y-85517654D01*
X157660959Y-85525000D01*
X156000000Y-85525000D01*
X155741689Y-85576381D01*
X155522703Y-85722703D01*
X155376381Y-85941689D01*
X155325000Y-86200000D01*
X121115152Y-86200000D01*
X121116599Y-86199069D01*
X121157410Y-86139340D01*
X121229000Y-86067750D01*
X121229000Y-85999612D01*
X121221099Y-85980538D01*
X121232346Y-85925000D01*
X121232346Y-85575000D01*
X121222938Y-85525000D01*
X122350000Y-85525000D01*
X122393467Y-85516354D01*
X122437790Y-85516354D01*
X122629132Y-85478293D01*
X122629134Y-85478293D01*
X122699464Y-85449161D01*
X122791349Y-85411102D01*
X122791353Y-85411098D01*
X122953554Y-85302718D01*
X122953558Y-85302716D01*
X123077716Y-85178558D01*
X123077718Y-85178554D01*
X123186098Y-85016353D01*
X123186102Y-85016349D01*
X123253294Y-84854132D01*
X123291354Y-84662790D01*
X123291354Y-84618467D01*
X123300000Y-84575000D01*
X123300000Y-80450000D01*
X160400000Y-80450000D01*
X160400000Y-109550000D01*
X160400000Y-109550000D01*
G37*
X160400000Y-109550000D02*
X123300000Y-109550000D01*
X123300000Y-105425000D01*
X123291354Y-105381533D01*
X123291354Y-105337210D01*
X123253294Y-105145868D01*
X123186102Y-104983651D01*
X123186098Y-104983647D01*
X123077718Y-104821446D01*
X123077716Y-104821442D01*
X122953558Y-104697284D01*
X122953554Y-104697282D01*
X122791353Y-104588902D01*
X122791349Y-104588898D01*
X122684797Y-104544764D01*
X122629134Y-104521707D01*
X122629132Y-104521707D01*
X122437790Y-104483646D01*
X122393467Y-104483646D01*
X122350000Y-104475000D01*
X121222221Y-104475000D01*
X121232346Y-104425000D01*
X121232346Y-104075000D01*
X121221647Y-104018140D01*
X121229000Y-104000388D01*
X121229000Y-103932250D01*
X121158214Y-103861464D01*
X121124069Y-103808401D01*
X121111774Y-103800000D01*
X155325000Y-103800000D01*
X155376381Y-104058311D01*
X155522703Y-104277297D01*
X155741689Y-104423619D01*
X156000000Y-104475000D01*
X157663724Y-104475000D01*
X157700000Y-104482346D01*
X158012323Y-104482346D01*
X158018549Y-104515432D01*
X158045399Y-104557159D01*
X158086368Y-104585152D01*
X158135000Y-104595000D01*
X158628224Y-104595000D01*
X158671612Y-104638388D01*
X158711368Y-104665152D01*
X158760000Y-104675000D01*
X159140000Y-104675000D01*
X159187037Y-104665813D01*
X159228388Y-104638388D01*
X159271776Y-104595000D01*
X159740000Y-104595000D01*
X159785432Y-104586451D01*
X159827159Y-104559601D01*
X159855152Y-104518632D01*
X159865000Y-104470000D01*
X159865000Y-104050000D01*
X159856451Y-104004568D01*
X159829601Y-103962841D01*
X159825000Y-103959697D01*
X159825000Y-103640990D01*
X159827159Y-103639601D01*
X159855152Y-103598632D01*
X159865000Y-103550000D01*
X159865000Y-103130000D01*
X159856451Y-103084568D01*
X159829601Y-103042841D01*
X159788632Y-103014848D01*
X159740000Y-103005000D01*
X159271776Y-103005000D01*
X159228388Y-102961612D01*
X159188632Y-102934848D01*
X159140000Y-102925000D01*
X158760000Y-102925000D01*
X158712963Y-102934187D01*
X158671612Y-102961612D01*
X158628224Y-103005000D01*
X158135000Y-103005000D01*
X158089568Y-103013549D01*
X158047841Y-103040399D01*
X158019848Y-103081368D01*
X158012500Y-103117654D01*
X157700000Y-103117654D01*
X157660959Y-103125000D01*
X156000000Y-103125000D01*
X155741689Y-103176381D01*
X155522703Y-103322703D01*
X155376381Y-103541689D01*
X155325000Y-103800000D01*
X121111774Y-103800000D01*
X121045073Y-103754425D01*
X121064686Y-103746301D01*
X121171301Y-103639686D01*
X121181368Y-103615382D01*
X121229000Y-103567750D01*
X121229000Y-103432250D01*
X121181368Y-103384618D01*
X121171301Y-103360314D01*
X121064686Y-103253699D01*
X121044619Y-103245387D01*
X121116599Y-103199069D01*
X121157410Y-103139340D01*
X121229000Y-103067750D01*
X121229000Y-102999612D01*
X121221099Y-102980538D01*
X121232346Y-102925000D01*
X121232346Y-102575000D01*
X121217716Y-102497247D01*
X121232346Y-102425000D01*
X121232346Y-102075000D01*
X121221647Y-102018140D01*
X121229000Y-102000388D01*
X121229000Y-101932250D01*
X121158214Y-101861464D01*
X121124069Y-101808401D01*
X120998754Y-101722777D01*
X120850000Y-101692654D01*
X119851000Y-101692654D01*
X119851000Y-101675000D01*
X121750000Y-101675000D01*
X121793471Y-101666353D01*
X121837790Y-101666353D01*
X122067400Y-101620682D01*
X122067401Y-101620682D01*
X122134593Y-101592850D01*
X122229616Y-101553490D01*
X122229617Y-101553489D01*
X122424271Y-101423425D01*
X122548427Y-101299269D01*
X122678487Y-101104620D01*
X122678490Y-101104617D01*
X122706321Y-101037425D01*
X122745682Y-100942401D01*
X122745682Y-100942395D01*
X122791352Y-100712797D01*
X122791354Y-100712791D01*
X122791353Y-100625000D01*
X122791354Y-100537209D01*
X122791352Y-100537203D01*
X122745682Y-100307605D01*
X122745682Y-100307599D01*
X122683907Y-100158462D01*
X122678490Y-100145383D01*
X122678487Y-100145380D01*
X122548425Y-99950729D01*
X122424269Y-99826573D01*
X122229617Y-99696511D01*
X122229616Y-99696510D01*
X122125909Y-99653553D01*
X122067401Y-99629318D01*
X122067400Y-99629318D01*
X121837790Y-99583647D01*
X121793471Y-99583647D01*
X121750000Y-99575000D01*
X121201372Y-99575000D01*
X121202223Y-99573754D01*
X121232346Y-99425000D01*
X121232346Y-99300000D01*
X155325000Y-99300000D01*
X155376381Y-99558311D01*
X155522703Y-99777297D01*
X155741689Y-99923619D01*
X156000000Y-99975000D01*
X157663724Y-99975000D01*
X157700000Y-99982346D01*
X158012323Y-99982346D01*
X158018549Y-100015432D01*
X158045399Y-100057159D01*
X158086368Y-100085152D01*
X158135000Y-100095000D01*
X158628224Y-100095000D01*
X158671612Y-100138388D01*
X158711368Y-100165152D01*
X158760000Y-100175000D01*
X159140000Y-100175000D01*
X159187037Y-100165813D01*
X159228388Y-100138388D01*
X159271776Y-100095000D01*
X159740000Y-100095000D01*
X159785432Y-100086451D01*
X159827159Y-100059601D01*
X159855152Y-100018632D01*
X159865000Y-99970000D01*
X159865000Y-99550000D01*
X159856451Y-99504568D01*
X159829601Y-99462841D01*
X159825000Y-99459697D01*
X159825000Y-99140990D01*
X159827159Y-99139601D01*
X159855152Y-99098632D01*
X159865000Y-99050000D01*
X159865000Y-98630000D01*
X159856451Y-98584568D01*
X159829601Y-98542841D01*
X159788632Y-98514848D01*
X159740000Y-98505000D01*
X159271776Y-98505000D01*
X159228388Y-98461612D01*
X159188632Y-98434848D01*
X159140000Y-98425000D01*
X158760000Y-98425000D01*
X158712963Y-98434187D01*
X158671612Y-98461612D01*
X158628224Y-98505000D01*
X158135000Y-98505000D01*
X158089568Y-98513549D01*
X158047841Y-98540399D01*
X158019848Y-98581368D01*
X158012500Y-98617654D01*
X157700000Y-98617654D01*
X157660959Y-98625000D01*
X156000000Y-98625000D01*
X155741689Y-98676381D01*
X155522703Y-98822703D01*
X155376381Y-99041689D01*
X155325000Y-99300000D01*
X121232346Y-99300000D01*
X121232346Y-99075000D01*
X121217716Y-98997247D01*
X121232346Y-98925000D01*
X121232346Y-98575000D01*
X121217716Y-98497247D01*
X121232346Y-98425000D01*
X121232346Y-98075000D01*
X121221647Y-98018140D01*
X121229000Y-98000388D01*
X121229000Y-97932250D01*
X121158214Y-97861464D01*
X121124069Y-97808401D01*
X121038040Y-97749620D01*
X121116599Y-97699069D01*
X121157410Y-97639340D01*
X121229000Y-97567750D01*
X121229000Y-97499612D01*
X121221099Y-97480538D01*
X121232346Y-97425000D01*
X121232346Y-97075000D01*
X121217716Y-96997247D01*
X121232346Y-96925000D01*
X121232346Y-96575000D01*
X121221647Y-96518140D01*
X121229000Y-96500388D01*
X121229000Y-96432250D01*
X121158214Y-96361464D01*
X121124069Y-96308401D01*
X121038040Y-96249620D01*
X121116599Y-96199069D01*
X121157410Y-96139340D01*
X121229000Y-96067750D01*
X121229000Y-95999612D01*
X121221099Y-95980538D01*
X121232346Y-95925000D01*
X121232346Y-95575000D01*
X121217716Y-95497247D01*
X121232346Y-95425000D01*
X121232346Y-95075000D01*
X121221647Y-95018140D01*
X121229000Y-95000388D01*
X121229000Y-94932250D01*
X121158214Y-94861464D01*
X121124069Y-94808401D01*
X121038040Y-94749620D01*
X121116599Y-94699069D01*
X121157410Y-94639340D01*
X121229000Y-94567750D01*
X121229000Y-94499612D01*
X121221099Y-94480538D01*
X121232346Y-94425000D01*
X121232346Y-94075000D01*
X121217716Y-93997247D01*
X121232346Y-93925000D01*
X121232346Y-93575000D01*
X121221647Y-93518140D01*
X121229000Y-93500388D01*
X121229000Y-93432250D01*
X121158214Y-93361464D01*
X121124069Y-93308401D01*
X121038040Y-93249620D01*
X121116599Y-93199069D01*
X121157410Y-93139340D01*
X121229000Y-93067750D01*
X121229000Y-92999612D01*
X121221099Y-92980538D01*
X121232346Y-92925000D01*
X121232346Y-92575000D01*
X121217716Y-92497247D01*
X121232346Y-92425000D01*
X121232346Y-92075000D01*
X121221647Y-92018140D01*
X121229000Y-92000388D01*
X121229000Y-91932250D01*
X121158214Y-91861464D01*
X121124069Y-91808401D01*
X121038040Y-91749620D01*
X121116599Y-91699069D01*
X121157410Y-91639340D01*
X121229000Y-91567750D01*
X121229000Y-91499612D01*
X121221099Y-91480538D01*
X121232346Y-91425000D01*
X121232346Y-91075000D01*
X121217716Y-90997247D01*
X121232346Y-90925000D01*
X121232346Y-90575000D01*
X121221647Y-90518140D01*
X121229000Y-90500388D01*
X121229000Y-90432250D01*
X121158214Y-90361464D01*
X121124069Y-90308401D01*
X121038040Y-90249620D01*
X121116599Y-90199069D01*
X121157410Y-90139340D01*
X121229000Y-90067750D01*
X121229000Y-89999612D01*
X121221099Y-89980538D01*
X121232346Y-89925000D01*
X121232346Y-89575000D01*
X121217716Y-89497247D01*
X121232346Y-89425000D01*
X121232346Y-89075000D01*
X121217716Y-88997247D01*
X121232346Y-88925000D01*
X121232346Y-88575000D01*
X121217716Y-88497247D01*
X121232346Y-88425000D01*
X121232346Y-88075000D01*
X121217716Y-87997247D01*
X121232346Y-87925000D01*
X121232346Y-87575000D01*
X121217716Y-87497247D01*
X121232346Y-87425000D01*
X121232346Y-87075000D01*
X121221647Y-87018140D01*
X121229000Y-87000388D01*
X121229000Y-86932250D01*
X121158214Y-86861464D01*
X121124069Y-86808401D01*
X121045073Y-86754425D01*
X121064686Y-86746301D01*
X121171301Y-86639686D01*
X121181368Y-86615382D01*
X121229000Y-86567750D01*
X121229000Y-86432250D01*
X121181368Y-86384618D01*
X121171301Y-86360314D01*
X121064686Y-86253699D01*
X121044619Y-86245387D01*
X121115152Y-86200000D01*
X155325000Y-86200000D01*
X155376381Y-86458311D01*
X155522703Y-86677297D01*
X155741689Y-86823619D01*
X156000000Y-86875000D01*
X157663724Y-86875000D01*
X157700000Y-86882346D01*
X158012323Y-86882346D01*
X158018549Y-86915432D01*
X158045399Y-86957159D01*
X158086368Y-86985152D01*
X158135000Y-86995000D01*
X158628224Y-86995000D01*
X158671612Y-87038388D01*
X158711368Y-87065152D01*
X158760000Y-87075000D01*
X159140000Y-87075000D01*
X159187037Y-87065813D01*
X159228388Y-87038388D01*
X159271776Y-86995000D01*
X159740000Y-86995000D01*
X159785432Y-86986451D01*
X159827159Y-86959601D01*
X159855152Y-86918632D01*
X159865000Y-86870000D01*
X159865000Y-86450000D01*
X159856451Y-86404568D01*
X159829601Y-86362841D01*
X159825000Y-86359697D01*
X159825000Y-86040990D01*
X159827159Y-86039601D01*
X159855152Y-85998632D01*
X159865000Y-85950000D01*
X159865000Y-85530000D01*
X159856451Y-85484568D01*
X159829601Y-85442841D01*
X159788632Y-85414848D01*
X159740000Y-85405000D01*
X159271776Y-85405000D01*
X159228388Y-85361612D01*
X159188632Y-85334848D01*
X159140000Y-85325000D01*
X158760000Y-85325000D01*
X158712963Y-85334187D01*
X158671612Y-85361612D01*
X158628224Y-85405000D01*
X158135000Y-85405000D01*
X158089568Y-85413549D01*
X158047841Y-85440399D01*
X158019848Y-85481368D01*
X158012500Y-85517654D01*
X157700000Y-85517654D01*
X157660959Y-85525000D01*
X156000000Y-85525000D01*
X155741689Y-85576381D01*
X155522703Y-85722703D01*
X155376381Y-85941689D01*
X155325000Y-86200000D01*
X121115152Y-86200000D01*
X121116599Y-86199069D01*
X121157410Y-86139340D01*
X121229000Y-86067750D01*
X121229000Y-85999612D01*
X121221099Y-85980538D01*
X121232346Y-85925000D01*
X121232346Y-85575000D01*
X121222938Y-85525000D01*
X122350000Y-85525000D01*
X122393467Y-85516354D01*
X122437790Y-85516354D01*
X122629132Y-85478293D01*
X122629134Y-85478293D01*
X122699464Y-85449161D01*
X122791349Y-85411102D01*
X122791353Y-85411098D01*
X122953554Y-85302718D01*
X122953558Y-85302716D01*
X123077716Y-85178558D01*
X123077718Y-85178554D01*
X123186098Y-85016353D01*
X123186102Y-85016349D01*
X123253294Y-84854132D01*
X123291354Y-84662790D01*
X123291354Y-84618467D01*
X123300000Y-84575000D01*
X123300000Y-80450000D01*
X160400000Y-80450000D01*
X160400000Y-109550000D01*
D18*
G36*
X158167300Y-98617300D02*
X158135000Y-98617300D01*
X158130384Y-98618169D01*
X158126145Y-98620897D01*
X158123301Y-98625059D01*
X158122300Y-98630000D01*
X158122300Y-98867300D01*
X156000000Y-98867300D01*
X155834413Y-98900237D01*
X155694035Y-98994035D01*
X155600237Y-99134413D01*
X155567300Y-99300000D01*
X155600237Y-99465587D01*
X155694035Y-99605965D01*
X155834413Y-99699763D01*
X156000000Y-99732700D01*
X158122300Y-99732700D01*
X158122300Y-99970000D01*
X158123169Y-99974616D01*
X158125897Y-99978855D01*
X158130059Y-99981699D01*
X158135000Y-99982700D01*
X158167300Y-99982700D01*
X158167300Y-100537300D01*
X155462700Y-100537300D01*
X155462700Y-98062700D01*
X158167300Y-98062700D01*
X158167300Y-98617300D01*
X158167300Y-98617300D01*
G37*
X158167300Y-98617300D02*
X158135000Y-98617300D01*
X158130384Y-98618169D01*
X158126145Y-98620897D01*
X158123301Y-98625059D01*
X158122300Y-98630000D01*
X158122300Y-98867300D01*
X156000000Y-98867300D01*
X155834413Y-98900237D01*
X155694035Y-98994035D01*
X155600237Y-99134413D01*
X155567300Y-99300000D01*
X155600237Y-99465587D01*
X155694035Y-99605965D01*
X155834413Y-99699763D01*
X156000000Y-99732700D01*
X158122300Y-99732700D01*
X158122300Y-99970000D01*
X158123169Y-99974616D01*
X158125897Y-99978855D01*
X158130059Y-99981699D01*
X158135000Y-99982700D01*
X158167300Y-99982700D01*
X158167300Y-100537300D01*
X155462700Y-100537300D01*
X155462700Y-98062700D01*
X158167300Y-98062700D01*
X158167300Y-98617300D01*
G36*
X158167300Y-103117300D02*
X158135000Y-103117300D01*
X158130384Y-103118169D01*
X158126145Y-103120897D01*
X158123301Y-103125059D01*
X158122300Y-103130000D01*
X158122300Y-103367300D01*
X156000000Y-103367300D01*
X155834413Y-103400237D01*
X155694035Y-103494035D01*
X155600237Y-103634413D01*
X155567300Y-103800000D01*
X155600237Y-103965587D01*
X155694035Y-104105965D01*
X155834413Y-104199763D01*
X156000000Y-104232700D01*
X158122300Y-104232700D01*
X158122300Y-104470000D01*
X158123169Y-104474616D01*
X158125897Y-104478855D01*
X158130059Y-104481699D01*
X158135000Y-104482700D01*
X158167300Y-104482700D01*
X158167300Y-105037300D01*
X155462700Y-105037300D01*
X155462700Y-102562700D01*
X158167300Y-102562700D01*
X158167300Y-103117300D01*
X158167300Y-103117300D01*
G37*
X158167300Y-103117300D02*
X158135000Y-103117300D01*
X158130384Y-103118169D01*
X158126145Y-103120897D01*
X158123301Y-103125059D01*
X158122300Y-103130000D01*
X158122300Y-103367300D01*
X156000000Y-103367300D01*
X155834413Y-103400237D01*
X155694035Y-103494035D01*
X155600237Y-103634413D01*
X155567300Y-103800000D01*
X155600237Y-103965587D01*
X155694035Y-104105965D01*
X155834413Y-104199763D01*
X156000000Y-104232700D01*
X158122300Y-104232700D01*
X158122300Y-104470000D01*
X158123169Y-104474616D01*
X158125897Y-104478855D01*
X158130059Y-104481699D01*
X158135000Y-104482700D01*
X158167300Y-104482700D01*
X158167300Y-105037300D01*
X155462700Y-105037300D01*
X155462700Y-102562700D01*
X158167300Y-102562700D01*
X158167300Y-103117300D01*
G36*
X158167300Y-85517300D02*
X158135000Y-85517300D01*
X158130384Y-85518169D01*
X158126145Y-85520897D01*
X158123301Y-85525059D01*
X158122300Y-85530000D01*
X158122300Y-85767300D01*
X156000000Y-85767300D01*
X155834413Y-85800237D01*
X155694035Y-85894035D01*
X155600237Y-86034413D01*
X155567300Y-86200000D01*
X155600237Y-86365587D01*
X155694035Y-86505965D01*
X155834413Y-86599763D01*
X156000000Y-86632700D01*
X158122300Y-86632700D01*
X158122300Y-86870000D01*
X158123169Y-86874616D01*
X158125897Y-86878855D01*
X158130059Y-86881699D01*
X158135000Y-86882700D01*
X158167300Y-86882700D01*
X158167300Y-87437300D01*
X155462700Y-87437300D01*
X155462700Y-84962700D01*
X158167300Y-84962700D01*
X158167300Y-85517300D01*
X158167300Y-85517300D01*
G37*
X158167300Y-85517300D02*
X158135000Y-85517300D01*
X158130384Y-85518169D01*
X158126145Y-85520897D01*
X158123301Y-85525059D01*
X158122300Y-85530000D01*
X158122300Y-85767300D01*
X156000000Y-85767300D01*
X155834413Y-85800237D01*
X155694035Y-85894035D01*
X155600237Y-86034413D01*
X155567300Y-86200000D01*
X155600237Y-86365587D01*
X155694035Y-86505965D01*
X155834413Y-86599763D01*
X156000000Y-86632700D01*
X158122300Y-86632700D01*
X158122300Y-86870000D01*
X158123169Y-86874616D01*
X158125897Y-86878855D01*
X158130059Y-86881699D01*
X158135000Y-86882700D01*
X158167300Y-86882700D01*
X158167300Y-87437300D01*
X155462700Y-87437300D01*
X155462700Y-84962700D01*
X158167300Y-84962700D01*
X158167300Y-85517300D01*
M02*
