G04 #@! TF.FileFunction,Copper,L1,Top,Signal*
%FSLAX46Y46*%
G04 Gerber Fmt 4.6, Leading zero omitted, Abs format (unit mm)*
G04 Created by KiCad (PCBNEW 4.0.7) date Wed Mar 14 23:54:48 2018*
%MOMM*%
%LPD*%
G01*
G04 APERTURE LIST*
%ADD10C,0.100000*%
%ADD11R,1.700000X0.350000*%
%ADD12R,1.580000X0.500000*%
%ADD13R,0.500000X0.500000*%
%ADD14R,0.550000X0.600000*%
%ADD15C,6.000000*%
%ADD16C,0.250000*%
%ADD17C,0.200000*%
G04 APERTURE END LIST*
D10*
D11*
X120000000Y-104250000D03*
X120000000Y-103750000D03*
X120000000Y-103250000D03*
X120000000Y-102750000D03*
X120000000Y-102250000D03*
X120000000Y-101750000D03*
X120000000Y-99250000D03*
X120000000Y-98750000D03*
X120000000Y-98250000D03*
X120000000Y-97750000D03*
X120000000Y-97250000D03*
X120000000Y-96750000D03*
X120000000Y-96250000D03*
X120000000Y-95750000D03*
X120000000Y-95250000D03*
X120000000Y-94750000D03*
X120000000Y-94250000D03*
X120000000Y-93750000D03*
X120000000Y-93250000D03*
X120000000Y-92750000D03*
X120000000Y-92250000D03*
X120000000Y-91750000D03*
X120000000Y-91250000D03*
X120000000Y-90750000D03*
X120000000Y-90250000D03*
X120000000Y-89750000D03*
X120000000Y-89250000D03*
X120000000Y-88750000D03*
X120000000Y-88250000D03*
X120000000Y-87750000D03*
X120000000Y-87250000D03*
X120000000Y-86750000D03*
X120000000Y-86250000D03*
X120000000Y-85750000D03*
D12*
X158950000Y-102800000D03*
X158950000Y-104800000D03*
D13*
X159950000Y-103800000D03*
D14*
X157975000Y-103800000D03*
D10*
G36*
X159220000Y-103050000D02*
X159740000Y-103050000D01*
X159740000Y-103130000D01*
X159220000Y-103130000D01*
X159220000Y-103050000D01*
X159220000Y-103050000D01*
G37*
G36*
X159140001Y-103050001D02*
X159219999Y-103049999D01*
X159220001Y-103050001D01*
X159219999Y-103129999D01*
X159140001Y-103050001D01*
X159140001Y-103050001D01*
G37*
G36*
X158680001Y-103129999D02*
X158679999Y-103050001D01*
X158680001Y-103049999D01*
X158759999Y-103050001D01*
X158680001Y-103129999D01*
X158680001Y-103129999D01*
G37*
G36*
X158160000Y-103050000D02*
X158680000Y-103050000D01*
X158680000Y-103130000D01*
X158160000Y-103130000D01*
X158160000Y-103050000D01*
X158160000Y-103050000D01*
G37*
G36*
X159220000Y-104470000D02*
X159740000Y-104470000D01*
X159740000Y-104550000D01*
X159220000Y-104550000D01*
X159220000Y-104470000D01*
X159220000Y-104470000D01*
G37*
G36*
X158759999Y-104549999D02*
X158680001Y-104550001D01*
X158679999Y-104549999D01*
X158680001Y-104470001D01*
X158759999Y-104549999D01*
X158759999Y-104549999D01*
G37*
G36*
X159219999Y-104470001D02*
X159220001Y-104549999D01*
X159219999Y-104550001D01*
X159140001Y-104549999D01*
X159219999Y-104470001D01*
X159219999Y-104470001D01*
G37*
G36*
X158160000Y-104470000D02*
X158680000Y-104470000D01*
X158680000Y-104550000D01*
X158160000Y-104550000D01*
X158160000Y-104470000D01*
X158160000Y-104470000D01*
G37*
D12*
X158950000Y-98300000D03*
X158950000Y-100300000D03*
D13*
X159950000Y-99300000D03*
D14*
X157975000Y-99300000D03*
D10*
G36*
X159220000Y-98550000D02*
X159740000Y-98550000D01*
X159740000Y-98630000D01*
X159220000Y-98630000D01*
X159220000Y-98550000D01*
X159220000Y-98550000D01*
G37*
G36*
X159140001Y-98550001D02*
X159219999Y-98549999D01*
X159220001Y-98550001D01*
X159219999Y-98629999D01*
X159140001Y-98550001D01*
X159140001Y-98550001D01*
G37*
G36*
X158680001Y-98629999D02*
X158679999Y-98550001D01*
X158680001Y-98549999D01*
X158759999Y-98550001D01*
X158680001Y-98629999D01*
X158680001Y-98629999D01*
G37*
G36*
X158160000Y-98550000D02*
X158680000Y-98550000D01*
X158680000Y-98630000D01*
X158160000Y-98630000D01*
X158160000Y-98550000D01*
X158160000Y-98550000D01*
G37*
G36*
X159220000Y-99970000D02*
X159740000Y-99970000D01*
X159740000Y-100050000D01*
X159220000Y-100050000D01*
X159220000Y-99970000D01*
X159220000Y-99970000D01*
G37*
G36*
X158759999Y-100049999D02*
X158680001Y-100050001D01*
X158679999Y-100049999D01*
X158680001Y-99970001D01*
X158759999Y-100049999D01*
X158759999Y-100049999D01*
G37*
G36*
X159219999Y-99970001D02*
X159220001Y-100049999D01*
X159219999Y-100050001D01*
X159140001Y-100049999D01*
X159219999Y-99970001D01*
X159219999Y-99970001D01*
G37*
G36*
X158160000Y-99970000D02*
X158680000Y-99970000D01*
X158680000Y-100050000D01*
X158160000Y-100050000D01*
X158160000Y-99970000D01*
X158160000Y-99970000D01*
G37*
D12*
X158950000Y-85200000D03*
X158950000Y-87200000D03*
D13*
X159950000Y-86200000D03*
D14*
X157975000Y-86200000D03*
D10*
G36*
X159220000Y-85450000D02*
X159740000Y-85450000D01*
X159740000Y-85530000D01*
X159220000Y-85530000D01*
X159220000Y-85450000D01*
X159220000Y-85450000D01*
G37*
G36*
X159140001Y-85450001D02*
X159219999Y-85449999D01*
X159220001Y-85450001D01*
X159219999Y-85529999D01*
X159140001Y-85450001D01*
X159140001Y-85450001D01*
G37*
G36*
X158680001Y-85529999D02*
X158679999Y-85450001D01*
X158680001Y-85449999D01*
X158759999Y-85450001D01*
X158680001Y-85529999D01*
X158680001Y-85529999D01*
G37*
G36*
X158160000Y-85450000D02*
X158680000Y-85450000D01*
X158680000Y-85530000D01*
X158160000Y-85530000D01*
X158160000Y-85450000D01*
X158160000Y-85450000D01*
G37*
G36*
X159220000Y-86870000D02*
X159740000Y-86870000D01*
X159740000Y-86950000D01*
X159220000Y-86950000D01*
X159220000Y-86870000D01*
X159220000Y-86870000D01*
G37*
G36*
X158759999Y-86949999D02*
X158680001Y-86950001D01*
X158679999Y-86949999D01*
X158680001Y-86870001D01*
X158759999Y-86949999D01*
X158759999Y-86949999D01*
G37*
G36*
X159219999Y-86870001D02*
X159220001Y-86949999D01*
X159219999Y-86950001D01*
X159140001Y-86949999D01*
X159219999Y-86870001D01*
X159219999Y-86870001D01*
G37*
G36*
X158160000Y-86870000D02*
X158680000Y-86870000D01*
X158680000Y-86950000D01*
X158160000Y-86950000D01*
X158160000Y-86870000D01*
X158160000Y-86870000D01*
G37*
D15*
X160850000Y-95000000D03*
D16*
X121500000Y-103500000D02*
X121250000Y-103250000D01*
X121250000Y-103250000D02*
X120000000Y-103250000D01*
X121250000Y-103750000D02*
X121500000Y-103500000D01*
X120000000Y-103750000D02*
X121250000Y-103750000D01*
X121500000Y-102000000D02*
X121500000Y-102850000D01*
X121500000Y-102850000D02*
X121100000Y-103250000D01*
X121100000Y-103250000D02*
X120000000Y-103250000D01*
X121250000Y-101750000D02*
X121500000Y-102000000D01*
X120000000Y-101750000D02*
X121250000Y-101750000D01*
X121500000Y-96729998D02*
X121500000Y-97350000D01*
X121500000Y-97350000D02*
X121100000Y-97750000D01*
X121100000Y-97750000D02*
X120000000Y-97750000D01*
X120000000Y-96250000D02*
X121020002Y-96250000D01*
X121020002Y-96250000D02*
X121500000Y-96729998D01*
X121500000Y-93650000D02*
X121500000Y-94350000D01*
X121500000Y-94350000D02*
X121100000Y-94750000D01*
X121100000Y-94750000D02*
X120000000Y-94750000D01*
X120000000Y-93250000D02*
X121100000Y-93250000D01*
X121100000Y-93250000D02*
X121500000Y-93650000D01*
X121500000Y-90650000D02*
X121500000Y-91350000D01*
X121500000Y-91350000D02*
X121100000Y-91750000D01*
X121100000Y-91750000D02*
X120000000Y-91750000D01*
X120000000Y-90250000D02*
X121100000Y-90250000D01*
X121100000Y-90250000D02*
X121500000Y-90650000D01*
X121500000Y-86500000D02*
X121250000Y-86750000D01*
X121250000Y-86750000D02*
X120000000Y-86750000D01*
X121250000Y-86250000D02*
X121500000Y-86500000D01*
X120000000Y-86250000D02*
X121250000Y-86250000D01*
D17*
G36*
X160425000Y-109575000D02*
X123275000Y-109575000D01*
X123275000Y-105425000D01*
X123266834Y-105383947D01*
X123266834Y-105342088D01*
X123228774Y-105150745D01*
X123165315Y-104997542D01*
X123165313Y-104997540D01*
X123165313Y-104997539D01*
X123056927Y-104835328D01*
X122975339Y-104753741D01*
X122939672Y-104718073D01*
X122777461Y-104609686D01*
X122624258Y-104546227D01*
X122624257Y-104546227D01*
X122624255Y-104546226D01*
X122432913Y-104508166D01*
X122391053Y-104508166D01*
X122350000Y-104500000D01*
X121191668Y-104500000D01*
X121206856Y-104425000D01*
X121206856Y-104075000D01*
X121194314Y-104008346D01*
X121200000Y-103994620D01*
X121200000Y-103862500D01*
X121112500Y-103775000D01*
X121030901Y-103775000D01*
X120988901Y-103746303D01*
X121040331Y-103725000D01*
X121112500Y-103725000D01*
X121200000Y-103637500D01*
X121200000Y-103505380D01*
X121197771Y-103500000D01*
X157343144Y-103500000D01*
X157343144Y-104100000D01*
X157367549Y-104229702D01*
X157444203Y-104348825D01*
X157561163Y-104428741D01*
X157700000Y-104456856D01*
X158250000Y-104456856D01*
X158379702Y-104432451D01*
X158498825Y-104355797D01*
X158578741Y-104238837D01*
X158606856Y-104100000D01*
X158606856Y-103500000D01*
X158582451Y-103370298D01*
X158505797Y-103251175D01*
X158388837Y-103171259D01*
X158250000Y-103143144D01*
X157700000Y-103143144D01*
X157570298Y-103167549D01*
X157451175Y-103244203D01*
X157371259Y-103361163D01*
X157343144Y-103500000D01*
X121197771Y-103500000D01*
X121200000Y-103494620D01*
X121200000Y-103362500D01*
X121112500Y-103275000D01*
X121040331Y-103275000D01*
X120986853Y-103252849D01*
X121030132Y-103225000D01*
X121112500Y-103225000D01*
X121200000Y-103137500D01*
X121200000Y-103005380D01*
X121193672Y-102990104D01*
X121206856Y-102925000D01*
X121206856Y-102575000D01*
X121192226Y-102497247D01*
X121206856Y-102425000D01*
X121206856Y-102075000D01*
X121194314Y-102008346D01*
X121200000Y-101994620D01*
X121200000Y-101862500D01*
X121112500Y-101775000D01*
X121030901Y-101775000D01*
X120988837Y-101746259D01*
X120883856Y-101725000D01*
X121112500Y-101725000D01*
X121187500Y-101650000D01*
X121750000Y-101650000D01*
X121791053Y-101641834D01*
X121832913Y-101641834D01*
X122062523Y-101596162D01*
X122062524Y-101596162D01*
X122215728Y-101532702D01*
X122410382Y-101402638D01*
X122527640Y-101285380D01*
X122657703Y-101090727D01*
X122721162Y-100937524D01*
X122721162Y-100937523D01*
X122766834Y-100707913D01*
X122766834Y-100542087D01*
X122721162Y-100312477D01*
X122709222Y-100283650D01*
X122657703Y-100159273D01*
X122527638Y-99964618D01*
X122410380Y-99847360D01*
X122215728Y-99717298D01*
X122062524Y-99653838D01*
X122062523Y-99653838D01*
X121832913Y-99608166D01*
X121791053Y-99608166D01*
X121750000Y-99600000D01*
X121154032Y-99600000D01*
X121178741Y-99563837D01*
X121206856Y-99425000D01*
X121206856Y-99075000D01*
X121192745Y-99000000D01*
X157343144Y-99000000D01*
X157343144Y-99600000D01*
X157367549Y-99729702D01*
X157444203Y-99848825D01*
X157561163Y-99928741D01*
X157700000Y-99956856D01*
X158250000Y-99956856D01*
X158379702Y-99932451D01*
X158498825Y-99855797D01*
X158578741Y-99738837D01*
X158606856Y-99600000D01*
X158606856Y-99000000D01*
X158582451Y-98870298D01*
X158505797Y-98751175D01*
X158388837Y-98671259D01*
X158250000Y-98643144D01*
X157700000Y-98643144D01*
X157570298Y-98667549D01*
X157451175Y-98744203D01*
X157371259Y-98861163D01*
X157343144Y-99000000D01*
X121192745Y-99000000D01*
X121192226Y-98997247D01*
X121206856Y-98925000D01*
X121206856Y-98575000D01*
X121192226Y-98497247D01*
X121206856Y-98425000D01*
X121206856Y-98075000D01*
X121194314Y-98008346D01*
X121200000Y-97994620D01*
X121200000Y-97862500D01*
X121112500Y-97775000D01*
X121030901Y-97775000D01*
X120992842Y-97748996D01*
X121030132Y-97725000D01*
X121112500Y-97725000D01*
X121200000Y-97637500D01*
X121200000Y-97505380D01*
X121193672Y-97490104D01*
X121206856Y-97425000D01*
X121206856Y-97075000D01*
X121192226Y-96997247D01*
X121206856Y-96925000D01*
X121206856Y-96575000D01*
X121194314Y-96508346D01*
X121200000Y-96494620D01*
X121200000Y-96362500D01*
X121112500Y-96275000D01*
X121030901Y-96275000D01*
X120992842Y-96248996D01*
X121030132Y-96225000D01*
X121112500Y-96225000D01*
X121200000Y-96137500D01*
X121200000Y-96005380D01*
X121193672Y-95990104D01*
X121206856Y-95925000D01*
X121206856Y-95575000D01*
X121192226Y-95497247D01*
X121206856Y-95425000D01*
X121206856Y-95075000D01*
X121194314Y-95008346D01*
X121200000Y-94994620D01*
X121200000Y-94862500D01*
X121112500Y-94775000D01*
X121030901Y-94775000D01*
X120992842Y-94748996D01*
X121030132Y-94725000D01*
X121112500Y-94725000D01*
X121200000Y-94637500D01*
X121200000Y-94505380D01*
X121193672Y-94490104D01*
X121206856Y-94425000D01*
X121206856Y-94075000D01*
X121192226Y-93997247D01*
X121206856Y-93925000D01*
X121206856Y-93575000D01*
X121194314Y-93508346D01*
X121200000Y-93494620D01*
X121200000Y-93362500D01*
X121112500Y-93275000D01*
X121030901Y-93275000D01*
X120992842Y-93248996D01*
X121030132Y-93225000D01*
X121112500Y-93225000D01*
X121200000Y-93137500D01*
X121200000Y-93005380D01*
X121193672Y-92990104D01*
X121206856Y-92925000D01*
X121206856Y-92575000D01*
X121192226Y-92497247D01*
X121206856Y-92425000D01*
X121206856Y-92075000D01*
X121194314Y-92008346D01*
X121200000Y-91994620D01*
X121200000Y-91862500D01*
X121112500Y-91775000D01*
X121030901Y-91775000D01*
X120992842Y-91748996D01*
X121030132Y-91725000D01*
X121112500Y-91725000D01*
X121200000Y-91637500D01*
X121200000Y-91505380D01*
X121193672Y-91490104D01*
X121206856Y-91425000D01*
X121206856Y-91075000D01*
X121192226Y-90997247D01*
X121206856Y-90925000D01*
X121206856Y-90575000D01*
X121194314Y-90508346D01*
X121200000Y-90494620D01*
X121200000Y-90362500D01*
X121112500Y-90275000D01*
X121030901Y-90275000D01*
X120992842Y-90248996D01*
X121030132Y-90225000D01*
X121112500Y-90225000D01*
X121200000Y-90137500D01*
X121200000Y-90005380D01*
X121193672Y-89990104D01*
X121206856Y-89925000D01*
X121206856Y-89575000D01*
X121192226Y-89497247D01*
X121206856Y-89425000D01*
X121206856Y-89075000D01*
X121192226Y-88997247D01*
X121206856Y-88925000D01*
X121206856Y-88575000D01*
X121192226Y-88497247D01*
X121206856Y-88425000D01*
X121206856Y-88075000D01*
X121192226Y-87997247D01*
X121206856Y-87925000D01*
X121206856Y-87575000D01*
X121192226Y-87497247D01*
X121206856Y-87425000D01*
X121206856Y-87075000D01*
X121194314Y-87008346D01*
X121200000Y-86994620D01*
X121200000Y-86862500D01*
X121112500Y-86775000D01*
X121030901Y-86775000D01*
X120988901Y-86746303D01*
X121040331Y-86725000D01*
X121112500Y-86725000D01*
X121200000Y-86637500D01*
X121200000Y-86505380D01*
X121197771Y-86500000D01*
X121200000Y-86494620D01*
X121200000Y-86362500D01*
X121112500Y-86275000D01*
X121040331Y-86275000D01*
X120986853Y-86252849D01*
X121030132Y-86225000D01*
X121112500Y-86225000D01*
X121200000Y-86137500D01*
X121200000Y-86005380D01*
X121193672Y-85990104D01*
X121206856Y-85925000D01*
X121206856Y-85900000D01*
X157343144Y-85900000D01*
X157343144Y-86500000D01*
X157367549Y-86629702D01*
X157444203Y-86748825D01*
X157561163Y-86828741D01*
X157700000Y-86856856D01*
X158250000Y-86856856D01*
X158379702Y-86832451D01*
X158498825Y-86755797D01*
X158578741Y-86638837D01*
X158606856Y-86500000D01*
X158606856Y-85900000D01*
X158582451Y-85770298D01*
X158505797Y-85651175D01*
X158388837Y-85571259D01*
X158250000Y-85543144D01*
X157700000Y-85543144D01*
X157570298Y-85567549D01*
X157451175Y-85644203D01*
X157371259Y-85761163D01*
X157343144Y-85900000D01*
X121206856Y-85900000D01*
X121206856Y-85575000D01*
X121192744Y-85500000D01*
X122350000Y-85500000D01*
X122391053Y-85491834D01*
X122432913Y-85491834D01*
X122624255Y-85453774D01*
X122624257Y-85453773D01*
X122624258Y-85453773D01*
X122777461Y-85390314D01*
X122939672Y-85281927D01*
X123003454Y-85218144D01*
X123056927Y-85164672D01*
X123165313Y-85002461D01*
X123165314Y-85002459D01*
X123165315Y-85002458D01*
X123228774Y-84849255D01*
X123266834Y-84657912D01*
X123266834Y-84616053D01*
X123275000Y-84575000D01*
X123275000Y-80425000D01*
X160425000Y-80425000D01*
X160425000Y-109575000D01*
X160425000Y-109575000D01*
G37*
X160425000Y-109575000D02*
X123275000Y-109575000D01*
X123275000Y-105425000D01*
X123266834Y-105383947D01*
X123266834Y-105342088D01*
X123228774Y-105150745D01*
X123165315Y-104997542D01*
X123165313Y-104997540D01*
X123165313Y-104997539D01*
X123056927Y-104835328D01*
X122975339Y-104753741D01*
X122939672Y-104718073D01*
X122777461Y-104609686D01*
X122624258Y-104546227D01*
X122624257Y-104546227D01*
X122624255Y-104546226D01*
X122432913Y-104508166D01*
X122391053Y-104508166D01*
X122350000Y-104500000D01*
X121191668Y-104500000D01*
X121206856Y-104425000D01*
X121206856Y-104075000D01*
X121194314Y-104008346D01*
X121200000Y-103994620D01*
X121200000Y-103862500D01*
X121112500Y-103775000D01*
X121030901Y-103775000D01*
X120988901Y-103746303D01*
X121040331Y-103725000D01*
X121112500Y-103725000D01*
X121200000Y-103637500D01*
X121200000Y-103505380D01*
X121197771Y-103500000D01*
X157343144Y-103500000D01*
X157343144Y-104100000D01*
X157367549Y-104229702D01*
X157444203Y-104348825D01*
X157561163Y-104428741D01*
X157700000Y-104456856D01*
X158250000Y-104456856D01*
X158379702Y-104432451D01*
X158498825Y-104355797D01*
X158578741Y-104238837D01*
X158606856Y-104100000D01*
X158606856Y-103500000D01*
X158582451Y-103370298D01*
X158505797Y-103251175D01*
X158388837Y-103171259D01*
X158250000Y-103143144D01*
X157700000Y-103143144D01*
X157570298Y-103167549D01*
X157451175Y-103244203D01*
X157371259Y-103361163D01*
X157343144Y-103500000D01*
X121197771Y-103500000D01*
X121200000Y-103494620D01*
X121200000Y-103362500D01*
X121112500Y-103275000D01*
X121040331Y-103275000D01*
X120986853Y-103252849D01*
X121030132Y-103225000D01*
X121112500Y-103225000D01*
X121200000Y-103137500D01*
X121200000Y-103005380D01*
X121193672Y-102990104D01*
X121206856Y-102925000D01*
X121206856Y-102575000D01*
X121192226Y-102497247D01*
X121206856Y-102425000D01*
X121206856Y-102075000D01*
X121194314Y-102008346D01*
X121200000Y-101994620D01*
X121200000Y-101862500D01*
X121112500Y-101775000D01*
X121030901Y-101775000D01*
X120988837Y-101746259D01*
X120883856Y-101725000D01*
X121112500Y-101725000D01*
X121187500Y-101650000D01*
X121750000Y-101650000D01*
X121791053Y-101641834D01*
X121832913Y-101641834D01*
X122062523Y-101596162D01*
X122062524Y-101596162D01*
X122215728Y-101532702D01*
X122410382Y-101402638D01*
X122527640Y-101285380D01*
X122657703Y-101090727D01*
X122721162Y-100937524D01*
X122721162Y-100937523D01*
X122766834Y-100707913D01*
X122766834Y-100542087D01*
X122721162Y-100312477D01*
X122709222Y-100283650D01*
X122657703Y-100159273D01*
X122527638Y-99964618D01*
X122410380Y-99847360D01*
X122215728Y-99717298D01*
X122062524Y-99653838D01*
X122062523Y-99653838D01*
X121832913Y-99608166D01*
X121791053Y-99608166D01*
X121750000Y-99600000D01*
X121154032Y-99600000D01*
X121178741Y-99563837D01*
X121206856Y-99425000D01*
X121206856Y-99075000D01*
X121192745Y-99000000D01*
X157343144Y-99000000D01*
X157343144Y-99600000D01*
X157367549Y-99729702D01*
X157444203Y-99848825D01*
X157561163Y-99928741D01*
X157700000Y-99956856D01*
X158250000Y-99956856D01*
X158379702Y-99932451D01*
X158498825Y-99855797D01*
X158578741Y-99738837D01*
X158606856Y-99600000D01*
X158606856Y-99000000D01*
X158582451Y-98870298D01*
X158505797Y-98751175D01*
X158388837Y-98671259D01*
X158250000Y-98643144D01*
X157700000Y-98643144D01*
X157570298Y-98667549D01*
X157451175Y-98744203D01*
X157371259Y-98861163D01*
X157343144Y-99000000D01*
X121192745Y-99000000D01*
X121192226Y-98997247D01*
X121206856Y-98925000D01*
X121206856Y-98575000D01*
X121192226Y-98497247D01*
X121206856Y-98425000D01*
X121206856Y-98075000D01*
X121194314Y-98008346D01*
X121200000Y-97994620D01*
X121200000Y-97862500D01*
X121112500Y-97775000D01*
X121030901Y-97775000D01*
X120992842Y-97748996D01*
X121030132Y-97725000D01*
X121112500Y-97725000D01*
X121200000Y-97637500D01*
X121200000Y-97505380D01*
X121193672Y-97490104D01*
X121206856Y-97425000D01*
X121206856Y-97075000D01*
X121192226Y-96997247D01*
X121206856Y-96925000D01*
X121206856Y-96575000D01*
X121194314Y-96508346D01*
X121200000Y-96494620D01*
X121200000Y-96362500D01*
X121112500Y-96275000D01*
X121030901Y-96275000D01*
X120992842Y-96248996D01*
X121030132Y-96225000D01*
X121112500Y-96225000D01*
X121200000Y-96137500D01*
X121200000Y-96005380D01*
X121193672Y-95990104D01*
X121206856Y-95925000D01*
X121206856Y-95575000D01*
X121192226Y-95497247D01*
X121206856Y-95425000D01*
X121206856Y-95075000D01*
X121194314Y-95008346D01*
X121200000Y-94994620D01*
X121200000Y-94862500D01*
X121112500Y-94775000D01*
X121030901Y-94775000D01*
X120992842Y-94748996D01*
X121030132Y-94725000D01*
X121112500Y-94725000D01*
X121200000Y-94637500D01*
X121200000Y-94505380D01*
X121193672Y-94490104D01*
X121206856Y-94425000D01*
X121206856Y-94075000D01*
X121192226Y-93997247D01*
X121206856Y-93925000D01*
X121206856Y-93575000D01*
X121194314Y-93508346D01*
X121200000Y-93494620D01*
X121200000Y-93362500D01*
X121112500Y-93275000D01*
X121030901Y-93275000D01*
X120992842Y-93248996D01*
X121030132Y-93225000D01*
X121112500Y-93225000D01*
X121200000Y-93137500D01*
X121200000Y-93005380D01*
X121193672Y-92990104D01*
X121206856Y-92925000D01*
X121206856Y-92575000D01*
X121192226Y-92497247D01*
X121206856Y-92425000D01*
X121206856Y-92075000D01*
X121194314Y-92008346D01*
X121200000Y-91994620D01*
X121200000Y-91862500D01*
X121112500Y-91775000D01*
X121030901Y-91775000D01*
X120992842Y-91748996D01*
X121030132Y-91725000D01*
X121112500Y-91725000D01*
X121200000Y-91637500D01*
X121200000Y-91505380D01*
X121193672Y-91490104D01*
X121206856Y-91425000D01*
X121206856Y-91075000D01*
X121192226Y-90997247D01*
X121206856Y-90925000D01*
X121206856Y-90575000D01*
X121194314Y-90508346D01*
X121200000Y-90494620D01*
X121200000Y-90362500D01*
X121112500Y-90275000D01*
X121030901Y-90275000D01*
X120992842Y-90248996D01*
X121030132Y-90225000D01*
X121112500Y-90225000D01*
X121200000Y-90137500D01*
X121200000Y-90005380D01*
X121193672Y-89990104D01*
X121206856Y-89925000D01*
X121206856Y-89575000D01*
X121192226Y-89497247D01*
X121206856Y-89425000D01*
X121206856Y-89075000D01*
X121192226Y-88997247D01*
X121206856Y-88925000D01*
X121206856Y-88575000D01*
X121192226Y-88497247D01*
X121206856Y-88425000D01*
X121206856Y-88075000D01*
X121192226Y-87997247D01*
X121206856Y-87925000D01*
X121206856Y-87575000D01*
X121192226Y-87497247D01*
X121206856Y-87425000D01*
X121206856Y-87075000D01*
X121194314Y-87008346D01*
X121200000Y-86994620D01*
X121200000Y-86862500D01*
X121112500Y-86775000D01*
X121030901Y-86775000D01*
X120988901Y-86746303D01*
X121040331Y-86725000D01*
X121112500Y-86725000D01*
X121200000Y-86637500D01*
X121200000Y-86505380D01*
X121197771Y-86500000D01*
X121200000Y-86494620D01*
X121200000Y-86362500D01*
X121112500Y-86275000D01*
X121040331Y-86275000D01*
X120986853Y-86252849D01*
X121030132Y-86225000D01*
X121112500Y-86225000D01*
X121200000Y-86137500D01*
X121200000Y-86005380D01*
X121193672Y-85990104D01*
X121206856Y-85925000D01*
X121206856Y-85900000D01*
X157343144Y-85900000D01*
X157343144Y-86500000D01*
X157367549Y-86629702D01*
X157444203Y-86748825D01*
X157561163Y-86828741D01*
X157700000Y-86856856D01*
X158250000Y-86856856D01*
X158379702Y-86832451D01*
X158498825Y-86755797D01*
X158578741Y-86638837D01*
X158606856Y-86500000D01*
X158606856Y-85900000D01*
X158582451Y-85770298D01*
X158505797Y-85651175D01*
X158388837Y-85571259D01*
X158250000Y-85543144D01*
X157700000Y-85543144D01*
X157570298Y-85567549D01*
X157451175Y-85644203D01*
X157371259Y-85761163D01*
X157343144Y-85900000D01*
X121206856Y-85900000D01*
X121206856Y-85575000D01*
X121192744Y-85500000D01*
X122350000Y-85500000D01*
X122391053Y-85491834D01*
X122432913Y-85491834D01*
X122624255Y-85453774D01*
X122624257Y-85453773D01*
X122624258Y-85453773D01*
X122777461Y-85390314D01*
X122939672Y-85281927D01*
X123003454Y-85218144D01*
X123056927Y-85164672D01*
X123165313Y-85002461D01*
X123165314Y-85002459D01*
X123165315Y-85002458D01*
X123228774Y-84849255D01*
X123266834Y-84657912D01*
X123266834Y-84616053D01*
X123275000Y-84575000D01*
X123275000Y-80425000D01*
X160425000Y-80425000D01*
X160425000Y-109575000D01*
M02*
